<svg xmlns="http://www.w3.org/2000/svg" viewBox="0 0 1000 460">
  <defs>
    <linearGradient id="body" x1="0" x2="1" y1="0" y2="1">
      <stop offset="0" stop-color="#35404d"/>
      <stop offset="1" stop-color="#151a21"/>
    </linearGradient>
    <linearGradient id="glass" x1="0" x2="0" y1="0" y2="1">
      <stop offset="0" stop-color="#6f7b8b"/>
      <stop offset="1" stop-color="#27303a"/>
    </linearGradient>
  </defs>
  <path d="M278 118h444c59 0 108 37 128 94l73 206c8 24-11 48-36 45l-118-14c-31-4-58-23-73-51l-35-66H339l-35 66c-15 28-42 47-73 51l-118 14c-25 3-44-21-36-45l73-206c20-57 69-94 128-94z" fill="url(#body)" stroke="#6b7280" stroke-width="6"/>
  <path d="M260 80h155c21 0 38 17 38 38v25H224v-27c0-20 16-36 36-36z" fill="#1f2937" stroke="#748094" stroke-width="5"/>
  <path d="M585 80h155c20 0 36 16 36 36v27H547v-25c0-21 17-38 38-38z" fill="#1f2937" stroke="#748094" stroke-width="5"/>
  <path d="M204 43h197c18 0 32 14 32 32v31H172V75c0-18 14-32 32-32z" fill="#111827" stroke="#657085" stroke-width="5"/>
  <path d="M599 43h197c18 0 32 14 32 32v31H567V75c0-18 14-32 32-32z" fill="#111827" stroke="#657085" stroke-width="5"/>
  <circle cx="284" cy="207" r="52" fill="#0f172a" stroke="#9aa6b8" stroke-width="7"/>
  <circle cx="284" cy="207" r="31" fill="url(#glass)" stroke="#111827" stroke-width="5"/>
  <circle cx="595" cy="310" r="52" fill="#0f172a" stroke="#9aa6b8" stroke-width="7"/>
  <circle cx="595" cy="310" r="31" fill="url(#glass)" stroke="#111827" stroke-width="5"/>
  <path d="M394 268h42v-42h56v42h42v56h-42v42h-56v-42h-42z" fill="#17202c" stroke="#94a3b8" stroke-width="5"/>
  <circle cx="500" cy="235" r="37" fill="#0f5132" stroke="#99f6c8" stroke-width="5"/>
  <circle cx="433" cy="202" r="20" fill="#1e293b" stroke="#94a3b8" stroke-width="4"/>
  <circle cx="567" cy="202" r="20" fill="#1e293b" stroke="#94a3b8" stroke-width="4"/>
  <circle cx="724" cy="203" r="29" fill="#2563eb" stroke="#bfdbfe" stroke-width="5"/>
  <circle cx="801" cy="164" r="29" fill="#f59e0b" stroke="#fde68a" stroke-width="5"/>
  <circle cx="878" cy="203" r="29" fill="#ef4444" stroke="#fecaca" stroke-width="5"/>
  <circle cx="801" cy="245" r="29" fill="#16a34a" stroke="#bbf7d0" stroke-width="5"/>
</svg>
