<svg xmlns="http://www.w3.org/2000/svg" viewBox="0 0 1000 460">
  <defs>
    <linearGradient id="body" x1="0" x2="1" y1="0" y2="1">
      <stop offset="0" stop-color="#475569"/>
      <stop offset="1" stop-color="#0f172a"/>
    </linearGradient>
  </defs>
  <path d="M276 113h448c66 0 122 45 139 109l49 190c7 27-18 51-45 42l-111-38c-27-9-49-30-60-57l-25-60H329l-25 60c-11 27-33 48-60 57l-111 38c-27 9-52-15-45-42l49-190c17-64 73-109 139-109z" fill="url(#body)" stroke="#9ca3af" stroke-width="6"/>
  <path d="M199 45h224c18 0 32 14 32 32v38H167V77c0-18 14-32 32-32z" fill="#1e293b" stroke="#94a3b8" stroke-width="5"/>
  <path d="M577 45h224c18 0 32 14 32 32v38H545V77c0-18 14-32 32-32z" fill="#1e293b" stroke="#94a3b8" stroke-width="5"/>
  <circle cx="292" cy="257" r="53" fill="#111827" stroke="#cbd5e1" stroke-width="7"/>
  <circle cx="292" cy="257" r="30" fill="#334155" stroke="#0f172a" stroke-width="5"/>
  <circle cx="622" cy="302" r="53" fill="#111827" stroke="#cbd5e1" stroke-width="7"/>
  <circle cx="622" cy="302" r="30" fill="#334155" stroke="#0f172a" stroke-width="5"/>
  <path d="M390 290h44v-44h54v44h44v54h-44v44h-54v-44h-44z" fill="#172033" stroke="#cbd5e1" stroke-width="5"/>
  <circle cx="500" cy="252" r="33" fill="#111827" stroke="#cbd5e1" stroke-width="5"/>
  <circle cx="431" cy="205" r="19" fill="#1e293b" stroke="#cbd5e1" stroke-width="4"/>
  <circle cx="569" cy="205" r="19" fill="#1e293b" stroke="#cbd5e1" stroke-width="4"/>
  <circle cx="724" cy="203" r="30" fill="#3b82f6" stroke="#dbeafe" stroke-width="5"/>
  <circle cx="802" cy="164" r="30" fill="#a855f7" stroke="#f3e8ff" stroke-width="5"/>
  <circle cx="880" cy="203" r="30" fill="#f97316" stroke="#fed7aa" stroke-width="5"/>
  <circle cx="802" cy="245" r="30" fill="#22c55e" stroke="#dcfce7" stroke-width="5"/>
</svg>
